<svg xmlns="http://www.w3.org/2000/svg" viewBox="0 0 200 100" fill="none" aria-hidden="true">
  <path d="M32 58 C22 48 18 34 24 26 C30 20 38 28 36 40 C34 50 32 58 32 58Z" fill="#3D2010"/>
  <path d="M42 60 C34 50 28 44 24 48 C20 54 26 64 34 62 C40 60 42 60 42 60Z" fill="#2C1A08"/>
  <path d="M52 58 C44 46 38 42 34 46 C30 52 36 60 44 58 C50 56 52 58 52 58Z" fill="#3D2010"/>
  <path d="M48 52 C62 40 92 34 122 36 C148 38 164 46 168 54 C170 60 160 64 128 66 C94 68 62 64 48 58 C44 55 48 52 48 52Z" fill="#3D2010"/>
  <path d="M142 60 C150 66 156 74 152 80 C148 84 140 80 142 72 C144 66 142 60 142 60Z" fill="#3D2010"/>
  <path d="M156 58 C164 64 170 72 166 78 C162 82 154 76 156 68 C157 62 156 58 156 58Z" fill="#2C1A08"/>
  <ellipse cx="172" cy="44" rx="20" ry="17" fill="#3D2010" transform="rotate(-8 172 44)"/>
  <path d="M154 30 C146 20 148 12 156 14 C164 16 164 26 160 32 C157 34 154 30 154 30Z" fill="#2C1A08"/>
  <path d="M186 50 C194 52 192 60 184 60 C178 58 180 52 186 50Z" fill="#4A2818"/>
  <circle cx="168" cy="38" r="4.5" fill="#FFFFFF"/>
  <path d="M154 54 C164 50 174 52 178 56 C178 60 170 62 162 60 C156 58 154 54 154 54Z" fill="#5ABD28"/>
  <circle cx="166" cy="64" r="5" fill="#5ABD28"/>
</svg>
